{
  "source": "C:\\Users\\Peter\\Desktop\\stuff\\MIUN\\quantitative_research\\video_compression\\videos\\BVI-HD\\BVI-HD_CDVL_videos\\ORIG\\BallUnderWater_1920x1080_60fps.mp4",
  "output": "C:\\Users\\Peter\\Desktop\\stuff\\MIUN\\quantitative_research\\video_compression\\compressed_videos\\BVI-HD\\av1\\1.5\\BallUnderWater_1920x1080_60fps_av1.mkv",
  "codec": "av1",
  "ok": "Input #0, mov,mp4,m4a,3gp,3g2,mj2, from 'C:\\Users\\Peter\\Desktop\\stuff\\MIUN\\quantitative_research\\video_compression\\videos\\BVI-HD\\BVI-HD_CDVL_videos\\ORIG\\BallUnderWater_1920x1080_60fps.mp4':\n  Metadata:\n    major_brand     : isom\n    minor_version   : 512\n    compatible_brands: isomiso2avc1mp41\n    encoder         : Lavf54.28.101\n  Duration: 00:00:05.00, start: 0.000000, bitrate: 212030 kb/s\n  Stream #0:0[0x1](und): Video: h264 (High 4:4:4 Predictive) (avc1 / 0x31637661), yuv420p(progressive), 1920x1080, 212025 kb/s, 60 fps, 60 tbr, 60 tbn (default)\n    Metadata:\n      handler_name    : VideoHandler\n      vendor_id       : [0][0][0][0]\n[out#0/matroska @ 00000209d844a0c0] Codec AVOption b:a (set bitrate (in bits/s)) has not been used for any stream. The most likely reason is either wrong type (e.g. a video option with no video streams) or that it is a private option of some decoder which was not actually used for any stream.\nStream mapping:\n  Stream #0:0 -> #0:0 (h264 (native) -> av1 (libsvtav1))\nPress [q] to stop, [?] for help\nSvt[info]: -------------------------------------------\nSvt[info]: SVT [version]:\tSVT-AV1 Encoder Lib v3.1.0-19-g6ecfe8ec\nSvt[info]: SVT [build]  :\tGCC 15.2.0\t 64 bit\nSvt[info]: LIB Build date: Aug 17 2025 11:37:13\nSvt[info]: -------------------------------------------\nSvt[info]: Level of Parallelism: 5\nSvt[info]: Number of PPCS 93\nSvt[info]: [asm level on system : up to avx2]\nSvt[info]: [asm level selected : up to avx2]\nSvt[info]: -------------------------------------------\nSvt[info]: SVT [config]: main profile\ttier (auto)\tlevel (auto)\nSvt[info]: SVT [config]: width / height / fps numerator / fps denominator \t\t: 1920 / 1080 / 60 / 1\nSvt[info]: SVT [config]: bit-depth / color format \t\t\t\t\t: 8 / YUV420\nSvt[info]: SVT [config]: preset / tune / pred struct \t\t\t\t\t: 4 / PSNR / random access\nSvt[info]: SVT [config]: gop size / mini-gop size / key-frame type \t\t\t: 321 / 16 / key frame\nSvt[info]: SVT [config]: BRC mode / target bitrate (kbps)\t\t\t\t: VBR / 1500 \nSvt[info]: SVT [config]: AQ mode / Variance Boost \t\t\t\t\t: 2 / 0\nSvt[info]: SVT [config]: sharpness / luminance-based QP bias \t\t\t\t: 0 / 0\nSvt[info]: SVT [config]: QP scale compress strength \t\t\t\t\t: 0\nSvt[info]: -------------------------------------------\nOutput #0, matroska, to 'C:\\Users\\Peter\\Desktop\\stuff\\MIUN\\quantitative_research\\video_compression\\compressed_videos\\BVI-HD\\av1\\1.5\\BallUnderWater_1920x1080_60fps_av1.mkv':\n  Metadata:\n    major_brand     : isom\n    minor_version   : 512\n    compatible_brands: isomiso2avc1mp41\n    encoder         : Lavf62.3.100\n  Stream #0:0(und): Video: av1 (AV01 / 0x31305641), yuv420p(tv, progressive), 1920x1080, q=2-31, 1500 kb/s, 60 fps, 1k tbn (default)\n    Metadata:\n      encoder         : Lavc62.11.100 libsvtav1\n      handler_name    : VideoHandler\n      vendor_id       : [0][0][0][0]\n    Side data:\n      cpb: bitrate max/min/avg: 0/0/1500000 buffer size: 1500000 vbv_delay: N/A\nframe=    0 fps=0.0 q=0.0 size=       0KiB time=N/A bitrate=N/A speed=N/A elapsed=0:00:01.93    \nframe=    0 fps=0.0 q=0.0 size=       0KiB time=N/A bitrate=N/A speed=N/A elapsed=0:00:02.77    \nframe=    0 fps=0.0 q=0.0 size=       0KiB time=N/A bitrate=N/A speed=N/A elapsed=0:00:03.50    \nframe=    0 fps=0.0 q=0.0 size=       0KiB time=N/A bitrate=N/A speed=N/A elapsed=0:00:04.11    \nframe=    0 fps=0.0 q=0.0 size=       0KiB time=N/A bitrate=N/A speed=N/A elapsed=0:00:04.78    \nframe=    0 fps=0.0 q=0.0 size=       0KiB time=N/A bitrate=N/A speed=N/A elapsed=0:00:05.29    \nframe=    0 fps=0.0 q=0.0 size=       0KiB time=N/A bitrate=N/A speed=N/A elapsed=0:00:05.82    \nframe=    0 fps=0.0 q=0.0 size=       0KiB time=N/A bitrate=N/A speed=N/A elapsed=0:00:06.32    \nframe=    0 fps=0.0 q=0.0 size=       0KiB time=N/A bitrate=N/A speed=N/A elapsed=0:00:06.84    \nframe=    0 fps=0.0 q=0.0 size=       0KiB time=N/A bitrate=N/A speed=N/A elapsed=0:00:07.35    \nframe=    0 fps=0.0 q=0.0 size=       0KiB time=N/A bitrate=N/A speed=N/A elapsed=0:00:07.87    \nframe=    0 fps=0.0 q=0.0 size=       0KiB time=N/A bitrate=N/A speed=N/A elapsed=0:00:08.39    \nframe=    0 fps=0.0 q=0.0 size=       0KiB time=N/A bitrate=N/A speed=N/A elapsed=0:00:08.90    \nframe=    0 fps=0.0 q=0.0 size=       0KiB time=N/A bitrate=N/A speed=N/A elapsed=0:00:09.41    \nframe=    0 fps=0.0 q=0.0 size=       0KiB time=N/A bitrate=N/A speed=N/A elapsed=0:00:09.94    \nframe=    1 fps=0.1 q=26.0 size=       1KiB time=00:00:00.00 bitrate=N/A speed=   0x elapsed=0:00:10.45    \nframe=    1 fps=0.1 q=26.0 size=       1KiB time=00:00:00.00 bitrate=N/A speed=   0x elapsed=0:00:10.96    \nframe=    1 fps=0.1 q=26.0 size=       1KiB time=00:00:00.00 bitrate=N/A speed=   0x elapsed=0:00:11.49    \nframe=    1 fps=0.1 q=26.0 size=       1KiB time=00:00:00.00 bitrate=N/A speed=   0x elapsed=0:00:12.00    \nframe=    4 fps=0.3 q=48.0 size=       1KiB time=00:00:00.05 bitrate= 113.9kbits/s speed=0.00399x elapsed=0:00:12.52    \nframe=    7 fps=0.5 q=45.0 size=       1KiB time=00:00:00.10 bitrate=  57.0kbits/s speed=0.00768x elapsed=0:00:13.02    \nframe=    8 fps=0.6 q=48.0 size=       1KiB time=00:00:00.11 bitrate=  48.8kbits/s speed=0.00861x elapsed=0:00:13.54    \nframe=   11 fps=0.8 q=44.0 size=       1KiB time=00:00:00.16 bitrate=  34.2kbits/s speed=0.0118x elapsed=0:00:14.06    \nframe=   12 fps=0.8 q=46.0 size=       1KiB time=00:00:00.18 bitrate=  31.1kbits/s speed=0.0126x elapsed=0:00:14.57    \nframe=   13 fps=0.9 q=42.0 size=       1KiB time=00:00:00.20 bitrate=  28.5kbits/s speed=0.0133x elapsed=0:00:15.09    \nframe=   16 fps=1.0 q=45.0 size=       1KiB time=00:00:00.25 bitrate=  22.8kbits/s speed=0.016x elapsed=0:00:15.60    \nframe=   17 fps=1.1 q=35.0 size=       1KiB time=00:00:00.26 bitrate=  21.4kbits/s speed=0.0165x elapsed=0:00:16.12    \nframe=   19 fps=1.1 q=44.0 size=       1KiB time=00:00:00.30 bitrate=  19.0kbits/s speed=0.018x elapsed=0:00:16.64    \nframe=   20 fps=1.2 q=43.0 size=       1KiB time=00:00:00.33 bitrate=  17.1kbits/s speed=0.0194x elapsed=0:00:17.15    \nframe=   22 fps=1.2 q=42.0 size=       1KiB time=00:00:00.35 bitrate=  16.3kbits/s speed=0.0198x elapsed=0:00:17.67    \nframe=   23 fps=1.3 q=42.0 size=       1KiB time=00:00:00.36 bitrate=  15.5kbits/s speed=0.0202x elapsed=0:00:18.18    \nframe=   24 fps=1.3 q=41.0 size=       1KiB time=00:00:00.38 bitrate=  14.9kbits/s speed=0.0205x elapsed=0:00:18.70    \nframe=   26 fps=1.4 q=41.0 size=       1KiB time=00:00:00.41 bitrate=  13.7kbits/s speed=0.0217x elapsed=0:00:19.21    \nframe=   27 fps=1.4 q=44.0 size=       1KiB time=00:00:00.43 bitrate=  13.1kbits/s speed=0.0219x elapsed=0:00:19.74    \nframe=   28 fps=1.4 q=42.0 size=       1KiB time=00:00:00.45 bitrate=  12.7kbits/s speed=0.0222x elapsed=0:00:20.25    \nframe=   32 fps=1.5 q=45.0 size=       1KiB time=00:00:00.51 bitrate=  11.0kbits/s speed=0.0249x elapsed=0:00:20.77    \nframe=   34 fps=1.6 q=45.0 size=       1KiB time=00:00:00.55 bitrate=  10.4kbits/s speed=0.0258x elapsed=0:00:21.27    \nframe=   36 fps=1.7 q=45.0 size=       1KiB time=00:00:00.58 bitrate=   9.8kbits/s speed=0.0268x elapsed=0:00:21.79    \nframe=   38 fps=1.7 q=45.0 size=       1KiB time=00:00:00.61 bitrate=   9.2kbits/s speed=0.0276x elapsed=0:00:22.31    \nframe=   39 fps=1.7 q=44.0 size=       1KiB time=00:00:00.63 bitrate=   9.0kbits/s speed=0.0277x elapsed=0:00:22.83    \nframe=   42 fps=1.8 q=46.0 size=       1KiB time=00:00:00.68 bitrate=   8.3kbits/s speed=0.0293x elapsed=0:00:23.35    \nframe=   43 fps=1.8 q=44.0 size=       1KiB time=00:00:00.70 bitrate=   8.1kbits/s speed=0.0293x elapsed=0:00:23.85    \nframe=   44 fps=1.8 q=46.0 size=       1KiB time=00:00:00.71 bitrate=   7.9kbits/s speed=0.0294x elapsed=0:00:24.38    \nframe=   47 fps=1.9 q=44.0 size=       1KiB time=00:00:00.76 bitrate=   7.4kbits/s speed=0.0308x elapsed=0:00:24.88    \nframe=   48 fps=1.9 q=45.0 size=       1KiB time=00:00:00.78 bitrate=   7.3kbits/s speed=0.0308x elapsed=0:00:25.41    \nframe=   50 fps=1.9 q=46.0 size=       1KiB time=00:00:00.81 bitrate=   7.0kbits/s speed=0.0315x elapsed=0:00:25.92    \nframe=   53 fps=2.0 q=43.0 size=       1KiB time=00:00:00.86 bitrate=   6.6kbits/s speed=0.0328x elapsed=0:00:26.44    \nframe=   54 fps=2.0 q=45.0 size=       1KiB time=00:00:00.88 bitrate=   6.4kbits/s speed=0.0328x elapsed=0:00:26.95    \nframe=   55 fps=2.0 q=44.0 size=       1KiB time=00:00:00.90 bitrate=   6.3kbits/s speed=0.0328x elapsed=0:00:27.47    \nframe=   57 fps=2.0 q=40.0 size=       1KiB time=00:00:00.93 bitrate=   6.1kbits/s speed=0.0333x elapsed=0:00:27.99    \nframe=   58 fps=2.0 q=44.0 size=       1KiB time=00:00:00.95 bitrate=   6.0kbits/s speed=0.0333x elapsed=0:00:28.52    \nframe=   60 fps=2.1 q=44.0 size=       1KiB time=00:00:00.98 bitrate=   5.8kbits/s speed=0.0339x elapsed=0:00:29.03    \nframe=   62 fps=2.1 q=44.0 size=       1KiB time=00:00:01.01 bitrate=   5.6kbits/s speed=0.0344x elapsed=0:00:29.55    \nframe=   65 fps=2.2 q=25.0 size=       1KiB time=00:00:01.06 bitrate=   5.3kbits/s speed=0.0355x elapsed=0:00:30.06    \nframe=   67 fps=2.2 q=44.0 size=       1KiB time=00:00:01.10 bitrate=   5.2kbits/s speed=0.036x elapsed=0:00:30.58    \nframe=   69 fps=2.2 q=43.0 size=       1KiB time=00:00:01.13 bitrate=   5.0kbits/s speed=0.0364x elapsed=0:00:31.10    \nframe=   71 fps=2.2 q=42.0 size=       1KiB time=00:00:01.16 bitrate=   4.9kbits/s speed=0.0369x elapsed=0:00:31.61    \nframe=   74 fps=2.3 q=44.0 size=       1KiB time=00:00:01.21 bitrate=   4.7kbits/s speed=0.0379x elapsed=0:00:32.13    \nframe=   76 fps=2.3 q=43.0 size=       1KiB time=00:00:01.25 bitrate=   4.6kbits/s speed=0.0383x elapsed=0:00:32.64    \nframe=   79 fps=2.4 q=43.0 size=       1KiB time=00:00:01.30 bitrate=   4.4kbits/s speed=0.0392x elapsed=0:00:33.16    \nframe=   83 fps=2.5 q=44.0 size=       1KiB time=00:00:01.36 bitrate=   4.2kbits/s speed=0.0406x elapsed=0:00:33.67    \nframe=   85 fps=2.5 q=42.0 size=       1KiB time=00:00:01.40 bitrate=   4.1kbits/s speed=0.041x elapsed=0:00:34.18    \nframe=   87 fps=2.5 q=42.0 size=       1KiB time=00:00:01.43 bitrate=   4.0kbits/s speed=0.0413x elapsed=0:00:34.70    \nframe=   90 fps=2.6 q=43.0 size=       1KiB time=00:00:01.48 bitrate=   3.8kbits/s speed=0.0421x elapsed=0:00:35.22    \nframe=   92 fps=2.6 q=44.0 size=       1KiB time=00:00:01.51 bitrate=   3.8kbits/s speed=0.0424x elapsed=0:00:35.73    \nframe=   96 fps=2.6 q=44.0 size=       1KiB time=00:00:01.58 bitrate=   3.6kbits/s speed=0.0437x elapsed=0:00:36.25    \nframe=  100 fps=2.7 q=43.0 size=       1KiB time=00:00:01.65 bitrate=   3.5kbits/s speed=0.0449x elapsed=0:00:36.76    \nframe=  102 fps=2.7 q=43.0 size=       1KiB time=00:00:01.68 bitrate=   3.4kbits/s speed=0.0452x elapsed=0:00:37.27    \nframe=  103 fps=2.7 q=42.0 size=       1KiB time=00:00:01.70 bitrate=   3.4kbits/s speed=0.045x elapsed=0:00:37.79    \nframe=  106 fps=2.8 q=44.0 size=       1KiB time=00:00:01.75 bitrate=   3.3kbits/s speed=0.0457x elapsed=0:00:38.31    \nframe=  107 fps=2.8 q=43.0 size=       1KiB time=00:00:01.76 bitrate=   3.2kbits/s speed=0.0455x elapsed=0:00:38.83    \nframe=  111 fps=2.8 q=43.0 size=       1KiB time=00:00:01.83 bitrate=   3.1kbits/s speed=0.0466x elapsed=0:00:39.34    \nframe=  113 fps=2.8 q=27.0 size=       1KiB time=00:00:01.86 bitrate=   3.1kbits/s speed=0.0468x elapsed=0:00:39.86    \nframe=  115 fps=2.8 q=44.0 size=       1KiB time=00:00:01.90 bitrate=   3.0kbits/s speed=0.047x elapsed=0:00:40.38    \nframe=  117 fps=2.9 q=42.0 size=       1KiB time=00:00:01.93 bitrate=   2.9kbits/s speed=0.0473x elapsed=0:00:40.89    \nframe=  120 fps=2.9 q=44.0 size=       1KiB time=00:00:01.98 bitrate=   2.9kbits/s speed=0.0479x elapsed=0:00:41.41    \nframe=  122 fps=2.9 q=44.0 size=       1KiB time=00:00:02.01 bitrate=   2.8kbits/s speed=0.0481x elapsed=0:00:41.92    \nframe=  123 fps=2.9 q=43.0 size=       1KiB time=00:00:02.03 bitrate=   2.8kbits/s speed=0.0479x elapsed=0:00:42.44    \nframe=  126 fps=2.9 q=44.0 size=       1KiB time=00:00:02.08 bitrate=   2.7kbits/s speed=0.0485x elapsed=0:00:42.94    \nframe=  129 fps=3.0 q=28.0 size=       1KiB time=00:00:02.13 bitrate=   2.7kbits/s speed=0.0491x elapsed=0:00:43.47    \nframe=  130 fps=3.0 q=45.0 size=       1KiB time=00:00:02.15 bitrate=   2.6kbits/s speed=0.0489x elapsed=0:00:43.98    \nframe=  133 fps=3.0 q=42.0 size=       1KiB time=00:00:02.20 bitrate=   2.6kbits/s speed=0.0494x elapsed=0:00:44.50    \nframe=  135 fps=3.0 q=42.0 size=       1KiB time=00:00:02.23 bitrate=   2.6kbits/s speed=0.0496x elapsed=0:00:45.02    \nframe=  137 fps=3.0 q=37.0 size=       1KiB time=00:00:02.26 bitrate=   2.5kbits/s speed=0.0498x elapsed=0:00:45.53    \nframe=  140 fps=3.0 q=44.0 size=       1KiB time=00:00:02.31 bitrate=   2.5kbits/s speed=0.0503x elapsed=0:00:46.05    \nframe=  143 fps=3.1 q=44.0 size=       1KiB time=00:00:02.36 bitrate=   2.4kbits/s speed=0.0508x elapsed=0:00:46.56    \nframe=  146 fps=3.1 q=47.0 size=       1KiB time=00:00:02.41 bitrate=   2.4kbits/s speed=0.0513x elapsed=0:00:47.08    \nframe=  149 fps=3.1 q=44.0 size=       1KiB time=00:00:02.46 bitrate=   2.3kbits/s speed=0.0518x elapsed=0:00:47.59    \nframe=  150 fps=3.1 q=47.0 size=       1KiB time=00:00:02.48 bitrate=   2.3kbits/s speed=0.0516x elapsed=0:00:48.11    \nframe=  152 fps=3.1 q=47.0 size=       1KiB time=00:00:02.51 bitrate=   2.3kbits/s speed=0.0517x elapsed=0:00:48.63    \nframe=  155 fps=3.2 q=45.0 size=       1KiB time=00:00:02.56 bitrate=   2.2kbits/s speed=0.0522x elapsed=0:00:49.14    \nframe=  158 fps=3.2 q=46.0 size=       1KiB time=00:00:02.61 bitrate=   2.2kbits/s speed=0.0527x elapsed=0:00:49.66    \nframe=  162 fps=3.2 q=47.0 size=       1KiB time=00:00:02.68 bitrate=   2.1kbits/s speed=0.0535x elapsed=0:00:50.17    \nframe=  165 fps=3.3 q=44.0 size=       1KiB time=00:00:02.73 bitrate=   2.1kbits/s speed=0.0539x elapsed=0:00:50.69    \nframe=  166 fps=3.2 q=46.0 size=       1KiB time=00:00:02.75 bitrate=   2.1kbits/s speed=0.0537x elapsed=0:00:51.20    \nframe=  170 fps=3.3 q=47.0 size=       1KiB time=00:00:02.81 bitrate=   2.0kbits/s speed=0.0545x elapsed=0:00:51.72    \nframe=  172 fps=3.3 q=45.0 size=       1KiB time=00:00:02.85 bitrate=   2.0kbits/s speed=0.0546x elapsed=0:00:52.23    \nframe=  177 fps=3.4 q=30.0 size=       1KiB time=00:00:02.93 bitrate=   1.9kbits/s speed=0.0556x elapsed=0:00:52.75    \nframe=  180 fps=3.4 q=48.0 size=       1KiB time=00:00:02.98 bitrate=   1.9kbits/s speed=0.056x elapsed=0:00:53.27    \nframe=  181 fps=3.4 q=45.0 size=       1KiB time=00:00:03.00 bitrate=   1.9kbits/s speed=0.0558x elapsed=0:00:53.78    \nframe=  182 fps=3.4 q=46.0 size=       1KiB time=00:00:03.01 bitrate=   1.9kbits/s speed=0.0556x elapsed=0:00:54.30    \nframe=  186 fps=3.4 q=47.0 size=       1KiB time=00:00:03.08 bitrate=   1.8kbits/s speed=0.0563x elapsed=0:00:54.81    \nframe=  189 fps=3.4 q=42.0 size=       1KiB time=00:00:03.13 bitrate=   1.8kbits/s speed=0.0566x elapsed=0:00:55.33    \nframe=  192 fps=3.4 q=47.0 size=       1KiB time=00:00:03.18 bitrate=   1.8kbits/s speed=0.057x elapsed=0:00:55.83    \nframe=  195 fps=3.5 q=47.0 size=       1KiB time=00:00:03.21 bitrate=   1.8kbits/s speed=0.0571x elapsed=0:00:56.36    \nframe=  197 fps=3.5 q=45.0 size=       1KiB time=00:00:03.26 bitrate=   1.7kbits/s speed=0.0573x elapsed=0:00:56.99    \nframe=  199 fps=3.5 q=43.0 size=       1KiB time=00:00:03.30 bitrate=   1.7kbits/s speed=0.0573x elapsed=0:00:57.58    \nframe=  205 fps=3.5 q=42.0 size=       1KiB time=00:00:03.40 bitrate=   1.7kbits/s speed=0.0585x elapsed=0:00:58.15    \nframe=  207 fps=3.5 q=44.0 size=       1KiB time=00:00:03.43 bitrate=   1.7kbits/s speed=0.0585x elapsed=0:00:58.67    \nframe=  211 fps=3.6 q=46.0 size=       1KiB time=00:00:03.46 bitrate=   1.6kbits/s speed=0.0586x elapsed=0:00:59.19    \nframe=  213 fps=3.6 q=44.0 size=       1KiB time=00:00:03.53 bitrate=   1.6kbits/s speed=0.0591x elapsed=0:00:59.74    \nframe=  217 fps=3.6 q=40.0 size=       1KiB time=00:00:03.60 bitrate=   1.6kbits/s speed=0.0597x elapsed=0:01:00.27    \nframe=  217 fps=3.6 q=40.0 size=       1KiB time=00:00:03.60 bitrate=   1.6kbits/s speed=0.0592x elapsed=0:01:00.78    \nframe=  221 fps=3.6 q=41.0 size=       1KiB time=00:00:03.66 bitrate=   1.6kbits/s speed=0.0598x elapsed=0:01:01.30    \nframe=  223 fps=3.6 q=44.0 size=       1KiB time=00:00:03.70 bitrate=   1.5kbits/s speed=0.0599x elapsed=0:01:01.80    \nframe=  229 fps=3.7 q=44.0 size=       1KiB time=00:00:03.80 bitrate=   1.5kbits/s speed=0.061x elapsed=0:01:02.33    \nframe=  233 fps=3.7 q=40.0 size=       1KiB time=00:00:03.86 bitrate=   1.5kbits/s speed=0.0615x elapsed=0:01:02.86    \nframe=  233 fps=3.7 q=40.0 size=       1KiB time=00:00:03.86 bitrate=   1.5kbits/s speed=0.061x elapsed=0:01:03.38    \nframe=  237 fps=3.7 q=41.0 size=       1KiB time=00:00:03.93 bitrate=   1.4kbits/s speed=0.0615x elapsed=0:01:03.90    \nframe=  243 fps=3.8 q=46.0 size=       1KiB time=00:00:04.03 bitrate=   1.4kbits/s speed=0.0626x elapsed=0:01:04.43    \nframe=  247 fps=3.8 q=43.0 size=       1KiB time=00:00:04.10 bitrate=   1.4kbits/s speed=0.0631x elapsed=0:01:04.94    \nframe=  249 fps=3.8 q=40.0 size=       1KiB time=00:00:04.13 bitrate=   1.4kbits/s speed=0.0631x elapsed=0:01:05.47    \nframe=  251 fps=3.8 q=45.0 size=       1KiB time=00:00:04.16 bitrate=   1.4kbits/s speed=0.0631x elapsed=0:01:05.98    \nframe=  253 fps=3.8 q=42.0 size=       1KiB time=00:00:04.20 bitrate=   1.4kbits/s speed=0.0631x elapsed=0:01:06.52    \nframe=  257 fps=3.8 q=32.0 size=       1KiB time=00:00:04.26 bitrate=   1.3kbits/s speed=0.0636x elapsed=0:01:07.06    \nframe=  261 fps=3.9 q=45.0 size=       1KiB time=00:00:04.33 bitrate=   1.3kbits/s speed=0.0641x elapsed=0:01:07.58    \nframe=  265 fps=3.9 q=41.0 size=       1KiB time=00:00:04.40 bitrate=   1.3kbits/s speed=0.0646x elapsed=0:01:08.10    \nframe=  267 fps=3.9 q=44.0 size=       1KiB time=00:00:04.43 bitrate=   1.3kbits/s speed=0.0646x elapsed=0:01:08.63    \nframe=  269 fps=3.9 q=41.0 size=       1KiB time=00:00:04.46 bitrate=   1.3kbits/s speed=0.0646x elapsed=0:01:09.15    \nframe=  273 fps=3.9 q=34.0 size=       1KiB time=00:00:04.53 bitrate=   1.3kbits/s speed=0.0651x elapsed=0:01:09.67    \nframe=  273 fps=3.9 q=34.0 size=       1KiB time=00:00:04.53 bitrate=   1.3kbits/s speed=0.0646x elapsed=0:01:10.19    \nframe=  277 fps=3.9 q=47.0 size=       1KiB time=00:00:04.60 bitrate=   1.2kbits/s speed=0.065x elapsed=0:01:10.74    \nframe=  281 fps=3.9 q=43.0 size=       1KiB time=00:00:04.66 bitrate=   1.2kbits/s speed=0.0655x elapsed=0:01:11.27    \nframe=  285 fps=4.0 q=47.0 size=       1KiB time=00:00:04.70 bitrate=   1.2kbits/s speed=0.0654x elapsed=0:01:11.81    \nframe=  287 fps=4.0 q=47.0 size=       1KiB time=00:00:04.76 bitrate=   1.2kbits/s speed=0.0659x elapsed=0:01:12.35    \n[out#0/matroska @ 00000209d844a0c0] video:890KiB audio:0KiB subtitle:0KiB other streams:0KiB global headers:0KiB muxing overhead: 0.233030%\nframe=  300 fps=4.1 q=47.0 Lsize=     892KiB time=00:00:04.98 bitrate=1465.9kbits/s speed=0.0685x elapsed=0:01:12.73    \n",
  "seconds": 76.14014291763306,
  "probe_out": {}
}